# xmcd
#
# Track frame offsets: 
#        150
#        15830
#        29655
#        45383
#        55590
#        68350
#        80478
#        93258
#        106145
#        118810
#        128250
#        142203
#        152625
#        168020
#        188553
#        210743
#        229130
#        242550
#
# Disc length: 3393 seconds
#
# Revision: 0
# Processed by: cddbd v1.5.1PL2 Copyright (c) Steve Scherf et al.
# Submitted via: ExactAudioCopy v0.95b3
#
DISCID=d60d3f12
DTITLE=Paddy O'Brien - Sings 18 Country Greats
DYEAR=1900
DGENRE=Country
TTITLE0=Devil Woman
TTITLE1=Santo Domingo
TTITLE2=Hank Williams Melody
TTITLE3=When My Blue Moon
TTITLE4=Angel Judy
TTITLE5=We Were Made For Eachother
TTITLE6=I Took A Memory To Lunch
TTITLE7=If I Didn't Have A Dime
TTITLE8=Caemen
TTITLE9=We Split The Blanket Down The Middle
TTITLE10=Frauline
TTITLE11=Still Got A Crush
TTITLE12=Don't Trade Your Love
TTITLE13=El Paso
TTITLE14=Back Home Again
TTITLE15=My Wedding Band
TTITLE16=Close To You
TTITLE17=There Goes My Everything
EXTD=
EXTT0=
EXTT1=
EXTT2=
EXTT3=
EXTT4=
EXTT5=
EXTT6=
EXTT7=
EXTT8=
EXTT9=
EXTT10=
EXTT11=
EXTT12=
EXTT13=
EXTT14=
EXTT15=
EXTT16=
EXTT17=
PLAYORDER=
